<?xml version="1.0" encoding="utf-8"?>
<!-- Generator: Adobe Illustrator 21.1.0, SVG Export Plug-In . SVG Version: 6.00 Build 0)  -->
<svg version="1.1" id="Layer_1" xmlns="http://www.w3.org/2000/svg" xmlns:xlink="http://www.w3.org/1999/xlink" x="0px" y="0px"
	 width="30.58px" height="36px" viewBox="0 0 30.58 36" style="enable-background:new 0 0 30.58 36;" xml:space="preserve">
<style type="text/css">
	.st0{fill:#FFFDFD;}
	.st1{fill:#FF0000;}
</style>
<g>
	<path class="st0" d="M30.58,7.809C30.58,3.503,27.077,0,22.772,0c-3.147,0-5.858,1.875-7.093,4.563
		c-1.245-0.456-2.582-0.722-3.985-0.722C5.239,3.842,0,9.103,0,15.598C0,25.959,11.694,36,11.694,36s11.694-10.041,11.694-20.402
		c0-0.004,0-0.008-0.001-0.013C27.406,15.27,30.58,11.907,30.58,7.809z"/>
	<g>
		<circle class="st1" cx="22.772" cy="7.809" r="3.289"/>
		<path class="st1" d="M30.58,7.809C30.58,3.503,27.077,0,22.772,0c-3.147,0-5.858,1.875-7.093,4.563
			c-1.245-0.456-2.582-0.722-3.985-0.722C5.239,3.842,0,9.103,0,15.598C0,25.959,11.694,36,11.694,36s11.694-10.041,11.694-20.402
			c0-0.004,0-0.008-0.001-0.013C27.406,15.27,30.58,11.907,30.58,7.809z M11.694,20.029c-2.422,0-4.385-1.963-4.385-4.385
			c0-2.422,1.963-4.385,4.385-4.385s4.385,1.963,4.385,4.385C16.079,18.066,14.116,20.029,11.694,20.029z M22.772,14.617
			c-3.754,0-6.809-3.054-6.809-6.809S19.018,1,22.772,1s6.809,3.054,6.809,6.809S26.526,14.617,22.772,14.617z"/>
	</g>
</g>
</svg>